<svg xmlns="http://www.w3.org/2000/svg" viewBox="0 0 351.01 351.01"><defs><style>.cls-1{fill:#fff;}.cls-2{fill:none;}</style></defs><g id="Capa_2" data-name="Capa 2"><g id="Capa_1-2" data-name="Capa 1"><path class="cls-1" d="M238.89,86.43h-.08q-22.16,0-44.3,0c-17.07,0-34.72,0-52.08,0a63,63,0,0,0-12,1.19c-7.69,1.52-12.56,11.31-12.66,19.52-.18,15-.14,30.31-.1,45.09q0,9.18,0,18.34,0,8.45,0,16.88c0,15.59,0,31.7.12,47.55,0,1.81-.24,2.9-.82,3.43s-1.55.68-3.17.54a56.11,56.11,0,0,0-7.1,0l-1.5,0c-4.59.14-7.22,2.72-7.59,7.48-.51,6.64,1.23,12.33,5,16.46s9.39,6.33,16.08,6.34q19,0,38.1,0h50.29c13.69,0,21.24-7.64,21.24-21.48q0-17.83,0-35.67V170.8c0-16.49,0-33.53-.07-50.29,0-1.48.17-2.32.59-2.72a3.62,3.62,0,0,1,2.54-.52c5.72.17,11.52.13,17.14.09,2.28,0,4.57,0,6.86,0h.27c1.78,0,4.44,0,4.79-3.39,1-9.47-.7-16.65-4.95-21.34C251.91,88.5,246.28,86.43,238.89,86.43ZM228.52,106c-.28-7.4,3.45-11.83,11.11-13.17,6-1,11.6,2.62,14.18,9.35.71,1.86.18,3.35-.42,5.08a14.93,14.93,0,0,0-.76,2.74,2.46,2.46,0,0,1-.68,1.57c-.5.33-1.51.08-2.49-.17a9.32,9.32,0,0,0-2.25-.39H247c-2.71.15-5.49.19-8.18.23-1.72,0-3.43,0-5.21.1-2.59.08-4.29.14-4.75-.33s-.41-2.25-.32-4.94V106Zm-6.27,141.7v.77c0,5.12-2,9.54-5.46,12.14a12.42,12.42,0,0,1-11.18,1.78c-5.58-1.62-9-6.5-9.19-13-.26-9.87-.64-10.46-9.88-10.46h-.8c-7.06,0-14.11,0-21.17,0-12.22,0-24.85,0-37.28.08-1.38,0-2.2-.16-2.59-.55s-.57-1.2-.57-2.62c.11-46.27.19-88,0-129.88a13.22,13.22,0,0,1,3.55-9.67A13,13,0,0,1,137,92.66h0l35.63,0,54.24,0c-4.1,5.31-4.68,11-4.67,16.4C222.34,155.31,222.3,202.28,222.25,247.7Zm-86.74-2.42c9.16-.12,18.47-.11,27.47-.1,7.66,0,15.58,0,23.37-.06,1.83,0,2.81.19,3.28.69s.64,1.41.57,2.85c-.23,4.62.21,9.84,4.73,14.39H174.29c-19.11,0-37.16,0-55.47,0h-.06c-8.61,0-14-5-14.51-13.34-.14-2.42.21-3.24,2.68-3.69a71.82,71.82,0,0,1,12.92-1c2.33,0,4.66.06,7,.12C129.66,245.25,132.61,245.32,135.51,245.28Z"/><path class="cls-1" d="M175.87,13C86.06,13,13,86.07,13,175.88S86.06,338.75,175.87,338.75s162.87-73.07,162.87-162.87S265.68,13,175.87,13Zm0,320.75C88.82,333.75,18,262.93,18,175.88S88.82,18,175.87,18,333.74,88.82,333.74,175.88,262.92,333.75,175.87,333.75Z"/><circle class="cls-2" cx="175.5" cy="175.5" r="175.5"/></g></g></svg>