<svg xmlns="http://www.w3.org/2000/svg" viewBox="0 0 351.01 351.01"><defs><style>.cls-1{fill:#fff;}.cls-2{fill:none;}</style></defs><g id="Capa_2" data-name="Capa 2"><g id="Capa_1-2" data-name="Capa 1"><path class="cls-1" d="M236.56,101c0-11.93-7.41-19.95-18.41-20h0c-10.82,0-18.41,8.2-18.45,20,0,9,0,18.27,0,27.49a5.18,5.18,0,0,1-.16,1.8,4.63,4.63,0,0,1-1.68-.75c-8.7-5.15-16.72-4.14-23.83,3-1.58,1.59-1.73,1.46-3.57-.15-7.16-6.25-15-7.44-22.59-3.44-2,1.06-2.45.83-2.47.82s-.35-.37-.35-2.45c0-8.12,0-16.53,0-25,0-7.25-1.89-12.7-5.53-16.22s-9.24-5.22-16.6-5h-.17l0,0a5.24,5.24,0,0,1-1.41-.13,4.18,4.18,0,0,0-3.29.34,3.5,3.5,0,0,0-1.24,2.2c-6,4.6-8.64,10.68-8.57,19.67l0,4.16c.26,35.59.53,72.4-.09,108.57a54.66,54.66,0,0,0,41.5,54.43,18.56,18.56,0,0,1,2.06.7c.36.14.71.28,1.07.4l.32.12.33-.11a8.74,8.74,0,0,1,4.42.09c.49.09,1,.19,1.48.26h26.14l4.71-.19.22-.14a8.19,8.19,0,0,1,3.63-.86c.47,0,.94-.08,1.41-.14l.52.11.34-.22a10.22,10.22,0,0,1,5.12-1.65h.17l2.8-1.14,9.2-5,.37-.08.08-.17.14-.07-1.36,2.18,5-4.95a1.9,1.9,0,0,0,1.34-1.32l2.15-1.89-.26,0,.94-.91,1.06-1.13h0l.86-.93.07-.09A89.37,89.37,0,0,0,234.21,235l0-.15a76.1,76.1,0,0,0,2.34-17q-.06-34.69,0-69.39Q236.58,124.72,236.56,101ZM118.63,90.2a11.33,11.33,0,0,1,7.5-2.49,18.87,18.87,0,0,1,3,.26c5.27.88,9.28,5.3,9.31,10.26.09,12.43.09,25.07.1,37.29,0,10.66,0,21.69.06,32.53a2.4,2.4,0,0,1-.39,1.66c-.36.36-1.29.32-2.34.29-7.23-.25-14.79.05-21.4,6V155.1q0-8,0-16c0-12.57,0-25.55,0-38.33C114.54,96.09,116,92.45,118.63,90.2ZM145.13,150c-.16-3.87-.32-7.53,1.66-11,2.89-5,7.22-7.11,12.54-6.09,4,.77,9.28,5.51,9.84,10.24a99,99,0,0,1,.24,15c-.14,3.74-.27,7.61-.08,11.44,0,.72-.09.87-.1.87s-.19.15-1.16,0a63.32,63.32,0,0,0-9.87-.72c-3.17,0-6.16.19-8.73.39-1.83.15-3.05-.11-3.73-.79s-1-2-.8-3.89l.06-.77a23.8,23.8,0,0,0-.13-7.19A32.12,32.12,0,0,0,145.13,150Zm34.44,115.57c-7.67.57-15.6,1.15-23-.11-18.13-3.08-30.9-12.56-38-28.17a47.51,47.51,0,0,1-4.1-20c0-2.46,0-4.92,0-7.38,0-5.77,0-11.73,0-17.59.09-9.78,5.84-15.69,15.38-15.81,5.16-.07,10.54-.1,16.24-.1s11.46,0,17.71.09c8,.08,11.64,3.77,11.66,11.95s-3.68,11.88-11.66,12.05c-2.8.06-5.67,0-8.43,0-3.46,0-7,0-10.57.08a9.3,9.3,0,0,1-1.55-.13c-1.52-.19-3.25-.41-4.38.63a3.4,3.4,0,0,0-.95,2.76,3.31,3.31,0,0,0,1,2.5c1.15,1,2.85.77,4.36.59a10,10,0,0,1,1.71-.12c2.55.15,5.14.12,7.65.09,1.6,0,3.26,0,4.88,0,8.58.16,13.83,5.42,14,14.09.05,1.65,0,3.34,0,5,0,1.16,0,2.33,0,3.49v.13c0,1.43,0,4.09,2.95,4.28s3.29-2.52,3.48-4c1.27-9.83-.5-16.79-6.32-24.43,2.69-1.39,5.37-3,7.23-5.63.7-1,1.19-.94,2.66-.57l.68.16c6.57,1.45,12.6.31,17-3.19s6.77-9.13,6.79-15.85q0-17.67,0-35.34c0-14.62,0-29.74,0-44.61a13.31,13.31,0,0,1,5-10.86,11.8,11.8,0,0,1,10.65-1.61c5.2,1.55,8.43,6.29,8.44,12.39q0,30.13,0,60.29v28.89q0,13.13,0,26.25c0,27.75-18.55,47.6-46.07,49.39Zm20.24-101.95c0,1.84,0,3.68,0,5.52,0,4.25-.09,8.65.09,13,.14,3.49-2.58,7.88-6.47,10.44-2,1.33-6.07,3.27-10.3,1.24l-.35-.17a3.7,3.7,0,0,1-.9-.5s-.06-.16.12-.77c2-6.57.32-12.53-4.78-17.24a5.35,5.35,0,0,1-1.71-4.09c-.2-3.31-.13-6.69-.07-10a87.64,87.64,0,0,0-.5-14.51,10.8,10.8,0,0,1,2.43-8.42,14.73,14.73,0,0,1,9.83-5.39l.64,0a11.73,11.73,0,0,1,7.81,3.39,12.48,12.48,0,0,1,4.2,9q0,6.42,0,12.82Zm14.46,98.44,0-.2a5.66,5.66,0,0,1,1.09-1.51Z"/><path class="cls-1" d="M176.51,13C86.7,13,13.63,86.07,13.63,175.88S86.7,338.75,176.51,338.75s162.87-73.07,162.87-162.87S266.31,13,176.51,13Zm0,320.75c-87.06,0-157.88-70.82-157.88-157.87S89.45,18,176.51,18,334.38,88.82,334.38,175.88,263.56,333.75,176.51,333.75Z"/><circle class="cls-2" cx="175.5" cy="175.5" r="175.5"/></g></g></svg>