<svg xmlns="http://www.w3.org/2000/svg" viewBox="0 0 351.01 351.01"><defs><style>.cls-1{fill:#fff;}.cls-2{fill:none;}</style></defs><g id="Capa_2" data-name="Capa 2"><g id="Capa_1-2" data-name="Capa 1"><path class="cls-1" d="M221.46,201.42c-4.5.47-7-.65-9.38-4.14a90.93,90.93,0,0,0-9-11.51c-3-3.2-3-5.2.09-8.58,12.91-14.3,23.09-26.08,32-37.05,14.36-17.58,17.06-37.63,8-59.59-.1-.23-.19-.46-.28-.71-.71-1.85-1.78-4.65-5.37-4.3l-.3,0-3.36,2.73.49,0-.55.62h0l-.65.74.31.31a.65.65,0,0,1-.36.34,1.24,1.24,0,0,0-.63.48l-.44.51h0l-.57.74-.05.22a5.32,5.32,0,0,1-2.54,3.27l-.93.61.2.24-1.55,1.89v.26a8.72,8.72,0,0,1-2.89,3.74h0a2.15,2.15,0,0,0-.41.47l-.11.16,0,.18a1.85,1.85,0,0,1-1.11,1.4l-1.19.51.28.37-.66.76v.4a1.57,1.57,0,0,1-.9,1.09h-.17v.07l0,0-.43.15-.16.43.6.23v0l-.66-.06c-.08.73-.26.77-.5.81l-.37.07-3.39,4.4-.26.44.05.33-1.72.45.87.82a1.81,1.81,0,0,1-.6.66l-.94-.58-.12,1.48-.51.9-.1,0-1.36,1.52-.2.27,0,.27a2.94,2.94,0,0,1-1.51,2,1.17,1.17,0,0,0-.47.45L199.68,123q-10,12.84-20,25.69c-1.16,1.49-2.36,3-2.77,3s-1.67-1.59-2.88-3.13l-.08-.11c-19.39-24.79-36.88-47.13-54.51-69.57-1.87-2.38-3.15-3.63-4.65-3.45s-2.47,1.73-3.74,4.52c-9.77,21.46-7.18,41.73,7.69,60.24,9.35,11.66,19.26,23.17,28.85,34.31l4.33,5c1.63,1.89,1.65,2.8.12,4.63-4.18,5-8.13,10-11.76,15-1.38,1.88-2.76,2.45-5.45,2.23a33.14,33.14,0,0,0-24.8,8.11,31.07,31.07,0,0,0-10.59,22.1,33.22,33.22,0,0,0,8.88,24.63,32.25,32.25,0,0,0,23.35,10H132a32.8,32.8,0,0,0,24.3-10.54,29.45,29.45,0,0,0,7.6-23.14c-.9-8.63,2.59-13.12,7.61-18.54.23-.25.48-.5.73-.75a12.08,12.08,0,0,0,1.72-2c.87-1.32,1.62-2,2.23-2s1.47.65,2.46,2c3.28,4.31,6.93,8.44,10.45,12.43l.86,1a7.12,7.12,0,0,1,1.83,6c-1.21,13.11,4,23.7,15,30.6A32.11,32.11,0,0,0,224,266.39a33.26,33.26,0,0,0,17-5,32.59,32.59,0,0,0,14.2-37.61A32.12,32.12,0,0,0,221.46,201.42ZM157.9,233.47c.18,16.18-10.71,26.18-29.13,26.76-4.18.13-9.14-2.26-13.64-6.56-5.64-5.38-9.35-12.68-9.44-18.59-.24-15.12,11-27.23,25.49-27.58a27.19,27.19,0,0,1,19.21,7.31C155.22,219.48,157.82,225.93,157.9,233.47ZM145.72,204.3c-.6-.23-.72-.41-.72-.41h0c0-.27.63-1.07.9-1.42,1-1.19,1.94-2.37,2.91-3.55,2.69-3.25,5.47-6.62,7.92-10.14.94-1.35,1.4-1.46,1.52-1.47h0c.42,0,1.27,1.07,1.77,1.71,3.52,4.45,7.34,9.11,11.67,14.24.35.42.35.42-.22,1l-.14.15c-3,3.33-6,6.64-9.08,10L160,216.92C156,211.6,152.1,206.69,145.72,204.3ZM182.65,155c7.3-8.28,14.14-17.15,20.76-25.73,4.11-5.31,8.35-10.81,12.65-16.11,6.49-8,14.12-17.52,21.9-28.19,4.13,12.24,4.54,22.78,1.37,33.95-2.73,9.6-8.64,16.43-14.9,23.66-1.51,1.74-3.07,3.55-4.57,5.37-4.55,5.58-9.36,11.11-14,16.46-2.77,3.18-5.53,6.36-8.26,9.57-1.38,1.62-2.07,1.91-2.43,1.87s-.73-.6-.91-.93a54.81,54.81,0,0,0-6.35-8.78,62.56,62.56,0,0,1-5.39-7.18C181.34,157.08,181.6,156.23,182.65,155Zm67.58,78.27c-.33,14.77-10.57,25.13-26.08,26.41A26.26,26.26,0,0,1,198,233.62c0-14.09,12-26.06,26-26.14h.12a26.57,26.57,0,0,1,18.68,8.2A24.81,24.81,0,0,1,250.23,233.31ZM207.6,205.75c-5.51,2.85-9.79,7.54-13.06,14.3L151,168.46l-8.88-10.54q-8.89-10.57-17.83-21.13c-9.06-10.66-13.35-22.44-12.76-35,.25-5.43,1-11.19,4.31-16.73L120,90.21c3.68,4.58,7.15,8.91,10.64,13.36q13,16.52,25.87,33.05L175,160.16c10.5,13.42,21.78,27.8,33.07,42.12l.1.13c.62.79,1.27,1.6,1.18,2C209.27,204.56,209,205,207.6,205.75Z"/><path class="cls-1" d="M176.45,172.23h-.21c-4.56.31-7.07,2.75-7.06,6.87v.25c0,2,0,4.22,1.49,5.63a5.09,5.09,0,0,0,3.68,1.22h.51c3.68-.18,7.46-1.09,7.54-6.48S179.21,172.62,176.45,172.23Z"/><path class="cls-1" d="M224.46,217.5c-3-.54-6.25.48-9.29,2.87-4,3.15-6.72,8.08-7,12.56a15.81,15.81,0,0,0,14.31,16.4q.72.06,1.44.06a15.87,15.87,0,0,0,10.54-3.73A15.23,15.23,0,0,0,239.56,235C240.18,225.33,235.1,219.43,224.46,217.5Zm8.95,16.37a9.4,9.4,0,0,1-3,6.62,9.24,9.24,0,0,1-6.63,2.62c-4.72-.18-9.18-4.74-9.17-9.4a9.39,9.39,0,0,1,2.86-6.54,9.54,9.54,0,0,1,6.62-2.83h.07a9.19,9.19,0,0,1,6.55,2.82A9.29,9.29,0,0,1,233.41,233.87Z"/><path class="cls-1" d="M132.36,218c-3-.54-6.25.48-9.29,2.87-4,3.15-6.72,8.08-7,12.56a15.83,15.83,0,0,0,14.32,16.4q.72.06,1.44.06a15.87,15.87,0,0,0,10.54-3.73,15.27,15.27,0,0,0,5.06-10.65C148.08,225.82,143,219.92,132.36,218Zm8.95,16.37a9.4,9.4,0,0,1-3,6.62,9.23,9.23,0,0,1-6.63,2.62c-4.72-.18-9.18-4.74-9.17-9.4a9.39,9.39,0,0,1,2.86-6.54,9.54,9.54,0,0,1,6.62-2.83h.07a9.18,9.18,0,0,1,6.56,2.81A9.32,9.32,0,0,1,141.31,234.36Z"/><path class="cls-1" d="M175.79,13C86,13,12.92,86.07,12.92,175.88S86,338.75,175.79,338.75s162.88-73.07,162.88-162.87S265.6,13,175.79,13Zm0,320.75c-87,0-157.87-70.82-157.87-157.87S88.74,18,175.79,18,333.67,88.82,333.67,175.88,262.85,333.75,175.79,333.75Z"/><circle class="cls-2" cx="175.5" cy="175.5" r="175.5"/></g></g></svg>